HIERARCHY
ROOT Hips
{
  OFFSET 0.0 0.0 0.0
  CHANNELS 6 Xposition Yposition Zposition Zrotation Xrotation Yrotation
  JOINT LeftHipJoint
  {
    OFFSET 0.1 0.0 0.0
    CHANNELS 3 Zrotation Xrotation Yrotation
    JOINT LeftUpLeg
    {
      OFFSET 125.510175570831 0.0 0.0
      CHANNELS 3 Zrotation Xrotation Yrotation
      JOINT LeftLeg
      {
        OFFSET 0.0 0.0 -461.7351325165072
        CHANNELS 3 Zrotation Xrotation Yrotation
        JOINT LeftFoot
        {
          OFFSET 0.0 0.0 -454.91453388191
          CHANNELS 3 Zrotation Xrotation Yrotation
          End Site
          {
            OFFSET 0.0 -0.1 0.0
          }
        }
      }
    }
  }
  JOINT LowerBack
  {
    OFFSET 0.0 0.0 0.1
    CHANNELS 3 Zrotation Xrotation Yrotation
    JOINT Spine
    {
      OFFSET 0.0 0.0 247.74924459293257
      CHANNELS 3 Zrotation Xrotation Yrotation
      JOINT Spine1
      {
        OFFSET 0.0 0.0 251.66952775308428
        CHANNELS 3 Zrotation Xrotation Yrotation
        JOINT LeftShoulder
        {
          OFFSET 0.1 0.0 0.0
          CHANNELS 3 Zrotation Xrotation Yrotation
          JOINT LeftArm
          {
            OFFSET 132.31096996277108 0.0 0.0
            CHANNELS 3 Zrotation Xrotation Yrotation
            JOINT LeftForeArm
            {
              OFFSET 281.21283231331097 0.0 0.0
              CHANNELS 3 Zrotation Xrotation Yrotation
              JOINT LeftHand
              {
                OFFSET 223.97023459828003 0.0 0.0
                CHANNELS 3 Zrotation Xrotation Yrotation
                End Site
                {
                  OFFSET 0.1 0.0 0.0
                }
              }
            }
          }
        }
        JOINT Neck
        {
          OFFSET 0.0 0.0 0.1
          CHANNELS 3 Zrotation Xrotation Yrotation
          JOINT Neck1
          {
            OFFSET 0.0 0.0 107.73906518664809
            CHANNELS 3 Zrotation Xrotation Yrotation
            End Site
            {
              OFFSET 0.0 0.0 123.13143833151273
            }
          }
        }
        JOINT RightShoulder
        {
          OFFSET -0.1 0.0 0.0
          CHANNELS 3 Zrotation Xrotation Yrotation
          JOINT RightArm
          {
            OFFSET -132.31096996277108 0.0 0.0
            CHANNELS 3 Zrotation Xrotation Yrotation
            JOINT RightForeArm
            {
              OFFSET -281.21283231331097 0.0 0.0
              CHANNELS 3 Zrotation Xrotation Yrotation
              JOINT RightHand
              {
                OFFSET -223.97023459828003 0.0 0.0
                CHANNELS 3 Zrotation Xrotation Yrotation
                End Site
                {
                  OFFSET -0.1 0.0 0.0
                }
              }
            }
          }
        }
      }
    }
  }
  JOINT RightHipJoint
  {
    OFFSET -0.1 0.0 0.0
    CHANNELS 3 Zrotation Xrotation Yrotation
    JOINT RightUpLeg
    {
      OFFSET -125.510175570831 0.0 0.0
      CHANNELS 3 Zrotation Xrotation Yrotation
      JOINT RightLeg
      {
        OFFSET 0.0 0.0 -461.7351325165072
        CHANNELS 3 Zrotation Xrotation Yrotation
        JOINT RightFoot
        {
          OFFSET 0.0 0.0 -454.91453388191
          CHANNELS 3 Zrotation Xrotation Yrotation
          End Site
          {
            OFFSET 0.0 -0.1 0.0
          }
        }
      }
    }
  }
}
MOTION
Frames: 10
Frame Time: 0.03333333333333333
2500.0 5850.0 935.6348341179406 31.5713552959912 1.833353669279764 10.216680034027068 0.0 0.0 -5.963540027744094e-16 -0.02573273218485616 -3.0487246898210403 -11.289038322167157 -3.2272847367178223 16.504042549798314 -0.6441317057508206 0.0 0.0 0.0 0.0 0.0 -5.963540027744094e-16 0.11940244195713658 12.660487337146222 2.185722003933776 4.6166293761912245 1.6370253817360436e-15 1.1276889227517829e-15 0.0 0.0 -3.975693351829396e-16 2.2011161338879814 -10.254581105030132 64.70433877788483 -78.40739419364674 -6.388689416979605e-15 -7.263400187917027e-15 3.1805546814635168e-15 7.95138670365879e-15 -7.95138670365879e-15 0.0 0.0 -3.975693351829396e-16 -17.155472183271083 16.7258226523319 -79.43774921123133 0.0 0.0 -3.975693351829396e-16 46.346697267235676 11.58770780802436 -71.06502134574572 78.5318159288182 6.488514651045301e-15 2.9118410039128043e-15 3.1805546814635168e-15 0.0 0.0 0.0 0.0 -5.963540027744094e-16 -0.10790582118335426 -11.185241855631434 0.5828780331878898 0.3358555739849668 16.602601559183043 3.3877315518314575 0.0 0.0 1.4908850069360234e-15
2500.0 5850.0 935.6348341179406 32.1104398532465 -0.3600509777764625 11.35152988939408 -5.517382872562698e-33 3.9756933518293955e-16 1.5902773407317582e-15 -0.0013347568363865838 -0.1407438318909933 -13.10367773016915 -3.2309501555981197 16.12501432725413 0.2026257002613757 0.0 0.0 0.0 -5.517382872562698e-33 3.9756933518293955e-16 1.5902773407317582e-15 0.5378482641999152 14.531228622855217 2.851986703155789 3.9239445494582528 1.4804550160003164e-15 -3.2331351731444623e-15 0.0 0.0 0.0 -2.507907720625563 -7.860328113466587 64.09717420643662 -76.50916563124312 0.0 0.0 0.0 0.0 0.0 0.0 0.0 0.0 -16.227835105045692 3.8235836560821452 -75.48456998623128 0.0 0.0 0.0 46.46304806496725 11.080298083204346 -71.7028479789441 81.91142142162674 5.937094683015862e-15 1.1692804801037097e-14 0.0 0.0 0.0 -5.517382872562698e-33 3.9756933518293955e-16 1.5902773407317582e-15 -0.35824071607129127 -9.686516986304282 -0.5821862924744247 0.46138984335362315 16.84309122268753 4.208336885249227 0.0 0.0 -1.3914926731402884e-15
2500.0 5850.0 935.6348341179406 32.64729549347304 -1.3441644572027585 11.298627748016276 1.3793457181406746e-33 3.975693351829396e-16 -3.975693351829396e-16 0.03449023665350686 0.7100967812878813 -13.378166805930121 -3.2604426144962124 16.39659820250532 -0.1716939265611793 -3.1805546814635176e-15 0.0 0.0 1.3793457181406746e-33 3.975693351829396e-16 -3.975693351829396e-16 0.698210034461747 15.958683416139925 3.551163542050325 4.107164588031175 -3.0787862053549984e-15 2.895170292246674e-15 0.0 0.0 -7.951386703658792e-16 -5.737097403441439 -5.485107130861768 65.21706109201388 -74.9935213280578 -3.836791068530593e-15 -5.4492459139322175e-15 0.0 0.0 -1.5902773407317584e-15 0.0 0.0 -7.951386703658792e-16 -15.128256041683837 -2.7318776440982897 -70.53999356578345 0.0 0.0 -7.951386703658792e-16 46.54210645090562 10.45664817305013 -71.099924621718 83.0509268733604 -1.319654650699138e-14 -5.30751560755157e-15 -3.1805546814635168e-15 0.0 0.0 1.3793457181406746e-33 3.975693351829396e-16 -3.975693351829396e-16 -0.3963003988417083 -9.116255884001959 -0.39252833769926737 0.6426741831037225 17.15914467522624 4.596394624245278 0.0 0.0 -4.572047354603805e-15
2500.0 5850.0 935.6348341179406 33.72966388051317 -2.5596525166112953 10.233836006458297 2.758691436281349e-33 -7.951386703658791e-16 3.9756933518293955e-16 0.06862636202362807 2.704211818671332 -12.895668447453293 -3.310889949628259 15.813050898611928 -0.6093817432604762 -3.1805546814635168e-15 -3.1805546814635168e-15 -8.827812596100317e-32 2.758691436281349e-33 -7.951386703658791e-16 3.9756933518293955e-16 0.4165478112636151 16.910384562976766 4.471418796627972 3.917267798523824 2.4791391049170217e-15 2.6998307876762605e-15 0.0 0.0 3.975693351829396e-16 -9.327572204582802 -2.9840233712337034 64.62803770972596 -72.39688217572295 -9.610571713422253e-15 7.74648811223329e-15 0.0 0.0 -1.5902773407317584e-15 0.0 0.0 3.975693351829396e-16 -13.679833683753783 -7.4570673585503675 -65.17625963045364 0.0 0.0 3.975693351829396e-16 45.24791625351423 10.078196144801295 -70.67883006776529 82.22609230443196 -2.4529548769324576e-14 -3.9208226384110275e-15 -3.1805546814635168e-15 0.0 0.0 2.758691436281349e-33 -7.951386703658791e-16 3.9756933518293955e-16 -0.1649525801360614 -6.693757872163525 0.6317706600848053 0.5840898060658444 16.17785140174471 4.558297513624531 -6.3611093629270335e-15 -7.951386703658791e-16 -1.5902773407317584e-15
2500.0 5850.0 935.6348341179406 34.68694669258239 -3.09796884392432 9.306121203866715 0.0 0.0 -1.987846675914698e-16 0.034497885890687086 3.8144217682416803 -12.769345685266101 -3.5802299775221664 15.975717365786997 -1.0693241476588633 0.0 0.0 0.0 0.0 0.0 -1.987846675914698e-16 0.1458632709354768 17.42117570364474 5.330966688894151 3.7241760524453946 -8.980672405421582e-16 -3.1530380299570927e-15 0.0 -1.5902773407317584e-15 0.0 -13.212818953789554 -1.3434746961773103 64.53512505311018 -70.97952652283409 1.3026940853599835e-14 -7.313102987177988e-15 0.0 0.0 3.1805546814635168e-15 0.0 -1.5902773407317584e-15 0.0 -13.393928829375167 -12.163372702346535 -60.92264087055252 0.0 -1.5902773407317584e-15 0.0 43.39734268039848 10.51177011426119 -70.14170629110282 84.58082509093792 4.705590586347243e-15 -4.280318862047331e-15 0.0 0.0 0.0 0.0 0.0 -1.987846675914698e-16 -0.045899615025745806 -5.184055059419664 1.5507068304429745 0.5670548279168218 15.682522123031609 4.210837496324261 0.0 0.0 -9.93923337957349e-17
2500.0 5850.0 935.6348341179406 35.94381481738646 -2.76873041440512 9.131759772140631 0.0 0.0 1.987846675914698e-16 0.04414919039385389 3.2392550339615958 -13.12815858613734 -3.8223995597157923 16.857819729219973 -2.21020932612201 0.0 -3.130858514565649e-15 0.0 0.0 0.0 1.987846675914698e-16 0.22669578372989646 17.45041667281862 5.425465628736551 3.6771957921124114 7.564623729177772e-16 -1.2176052603249813e-15 0.0 0.0 -1.1927080055488188e-15 -16.356859249476226 -0.4861552618954323 65.39268196120291 -70.44976683059019 -7.604140375539338e-15 -2.5889807036438563e-16 0.0 0.0 1.5902773407317584e-15 0.0 0.0 -1.1927080055488188e-15 -14.388403264960905 -15.681925162041603 -58.87384015194645 0.0 0.0 -1.1927080055488188e-15 41.79870791912633 10.55058833245026 -70.59891795284047 84.93419579958082 -8.589618621479299e-15 -9.384737675929355e-15 0.0 0.0 0.0 0.0 0.0 1.987846675914698e-16 -0.06323533117566983 -4.73180873287927 1.391852145047519 0.5982413734469053 15.773088765181003 4.412096466403399 0.0 0.0 -3.975693351829396e-16
2500.0 5850.0 935.6348341179406 35.63497672244947 -3.049097979949061 9.0455293481276 0.0 0.0 1.987846675914698e-16 0.036650897685755114 3.59729057623383 -13.780937921728741 -4.277034695871568 17.573687086518614 -2.2977078029425697 0.0 0.0 0.0 0.0 0.0 1.987846675914698e-16 0.1622911477275337 16.994943048813305 4.665457253418632 3.58196383348799 -9.065789269138206e-16 -3.551525254434942e-15 0.0 0.0 -1.5902773407317584e-15 -18.04484387946673 1.1271444493352742 66.74076645338984 -71.23097872223201 -1.0572248885599524e-14 2.5682037881301904e-14 0.0 0.0 -1.5902773407317584e-15 0.0 0.0 -1.5902773407317584e-15 -14.94688783771039 -16.4731410427342 -56.83297259127295 0.0 0.0 -1.5902773407317584e-15 41.89844844172246 11.26887398339897 -70.42660824178243 85.7368231970236 -4.6621720836209104e-15 4.3275701946731996e-15 -3.1805546814635168e-15 0.0 0.0 0.0 0.0 1.987846675914698e-16 -0.044752298840725534 -4.443047431439701 1.0605896473305094 0.445078651835995 15.589700954439195 4.856943382631033 0.0 0.0 1.1927080055488188e-15
2500.0 5850.0 935.6348341179406 35.7149605587093 -3.5204962082180558 8.74973661652072 0.0 0.0 0.0 0.03532696668273487 4.231855023257991 -14.30853181851402 -4.61145687280106 18.024860590290118 -2.2198868677390995 0.0 0.0 0.0 0.0 0.0 0.0 0.1289344000933704 16.672444362560157 4.174948081063797 3.8269465146645416 1.6557651888557904e-15 1.933638556391379e-15 -6.3611093629270335e-15 2.648343778830095e-31 -4.770832022195275e-15 -18.47146006658777 2.757895667304299 68.07047966347616 -73.17634356277102 -6.579976562489213e-16 -4.4495949532434865e-15 -3.1805546814635168e-15 0.0 0.0 -6.3611093629270335e-15 2.648343778830095e-31 -4.770832022195275e-15 -15.047059730858333 -17.198165637165197 -54.2895934609631 -6.3611093629270335e-15 2.648343778830095e-31 -4.770832022195275e-15 42.03472807977173 12.066365885491466 -70.63352048120422 86.00694935836668 -2.0125693887324457e-15 -6.82123191692194e-15 -3.1805546814635168e-15 0.0 0.0 0.0 0.0 0.0 -0.03237685487174657 -3.811785384825899 0.8832884416386689 0.3672261795709394 15.585220505928294 5.034243950604987 0.0 0.0 1.987846675914698e-16
2500.0 5850.0 935.6348341179406 36.16459392620083 -3.569952390615431 8.286842909410689 0.0 0.0 3.9756933518293955e-16 0.016387185835234463 4.174638235971625 -14.696976704813682 -5.04346627549901 18.74652452679067 -2.432967007040564 0.0 0.0 0.0 0.0 0.0 3.9756933518293955e-16 0.052733694746239373 16.684811381358173 3.8615145161666433 3.724748103642394 -1.4731524494807834e-15 3.627916118040191e-15 0.0 0.0 1.1927080055488188e-15 -21.091897331915654 4.568807795783831 68.65744670495246 -73.85006875971658 9.513969330948091e-15 -7.365759119973528e-15 0.0 0.0 0.0 0.0 0.0 1.1927080055488188e-15 -14.550194575912334 -17.97467340614708 -51.81901821171496 0.0 0.0 1.1927080055488188e-15 41.56601645044126 12.481008356915332 -70.74936890719982 85.86036217290884 1.0993939707510875e-14 7.14871086965105e-15 3.1805546814635168e-15 0.0 0.0 0.0 0.0 3.9756933518293955e-16 -0.014766668888581795 -3.5791360406692037 0.7665302742483875 0.26739469097911417 15.807172676376682 5.018646982377772 -6.896728590703373e-33 -7.951386703658792e-16 -9.93923337957349e-16
2500.0 5850.0 935.6348341179406 36.44893753794106 -4.279529890019352 8.561663542582698 0.0 0.0 3.975693351829396e-16 0.06983478111889717 5.125193166389577 -15.877292576191087 -5.507128137464442 19.536145269707276 -2.182798357614535 -3.1805546814635168e-15 0.0 0.0 0.0 0.0 3.975693351829396e-16 0.22932349553536913 17.188358157787388 3.322633728160083 3.4600502872690457 8.90797322758457e-16 3.1550996365657106e-15 0.0 0.0 -1.1927080055488188e-15 -23.427520654746747 5.62760138102049 68.57547120808873 -73.806121037257 -9.539821536965929e-15 -3.1860768761340243e-15 0.0 0.0 -3.1805546814635168e-15 0.0 0.0 -1.1927080055488188e-15 -12.511266512425923 -17.063828502712415 -48.19155998256772 0.0 0.0 -1.1927080055488188e-15 41.0749806036598 12.1753984361568 -70.459306710351 86.0203220239675 8.678182249618832e-15 9.30290288839309e-15 0.0 6.3611093629270335e-15 0.0 0.0 0.0 3.975693351829396e-16 -0.04030843408121453 -2.8382204646804667 -0.5305148145212091 0.06196325364594785 16.2030584982482 5.190811288261721 0.0 0.0 -5.963540027744094e-16
